<?xml version="1.0" encoding="utf-8"?>
<!-- Generator: Adobe Illustrator 23.0.1, SVG Export Plug-In . SVG Version: 6.00 Build 0)  -->
<svg version="1.1" id="Layer_1" xmlns="http://www.w3.org/2000/svg" xmlns:xlink="http://www.w3.org/1999/xlink" x="0px" y="0px"
	 viewBox="0 0 895.748 1148.0315" enable-background="new 0 0 895.748 1148.0315" xml:space="preserve">
<g>
	<rect x="141.7323" y="425.1968" fill="none" stroke="#000000" stroke-miterlimit="10" width="566.9291" height="566.9291"/>
	<line fill="none" stroke="#000000" stroke-miterlimit="10" x1="141.7323" y1="935.433" x2="708.6614" y2="935.433"/>
	<line fill="none" stroke="#000000" stroke-miterlimit="10" x1="141.7323" y1="878.7402" x2="708.6614" y2="878.7402"/>
	<line fill="none" stroke="#000000" stroke-miterlimit="10" x1="141.7323" y1="822.0472" x2="708.6614" y2="822.0472"/>
	<line fill="none" stroke="#000000" stroke-miterlimit="10" x1="141.7323" y1="765.3543" x2="708.6614" y2="765.3543"/>
	<line fill="none" stroke="#000000" stroke-miterlimit="10" x1="141.7323" y1="708.6614" x2="708.6614" y2="708.6614"/>
	<line fill="none" stroke="#000000" stroke-miterlimit="10" x1="141.7323" y1="651.9685" x2="708.6614" y2="651.9685"/>
	<line fill="none" stroke="#000000" stroke-miterlimit="10" x1="141.7323" y1="595.2756" x2="708.6614" y2="595.2756"/>
	<line fill="none" stroke="#000000" stroke-miterlimit="10" x1="141.7323" y1="538.5827" x2="708.6614" y2="538.5827"/>
	<line fill="none" stroke="#000000" stroke-miterlimit="10" x1="141.7323" y1="481.8898" x2="708.6614" y2="481.8898"/>
	<line fill="none" stroke="#000000" stroke-miterlimit="10" x1="651.9685" y1="425.1968" x2="651.9685" y2="992.126"/>
	<line fill="none" stroke="#000000" stroke-miterlimit="10" x1="595.2756" y1="425.1968" x2="595.2756" y2="992.126"/>
	<line fill="none" stroke="#000000" stroke-miterlimit="10" x1="538.5827" y1="425.1968" x2="538.5827" y2="992.126"/>
	<line fill="none" stroke="#000000" stroke-miterlimit="10" x1="481.8898" y1="425.1968" x2="481.8898" y2="992.126"/>
	<line fill="none" stroke="#000000" stroke-miterlimit="10" x1="425.1968" y1="425.1968" x2="425.1968" y2="992.126"/>
	<line fill="none" stroke="#000000" stroke-miterlimit="10" x1="368.5039" y1="425.1968" x2="368.5039" y2="992.126"/>
	<line fill="none" stroke="#000000" stroke-miterlimit="10" x1="311.811" y1="425.1968" x2="311.811" y2="992.126"/>
	<line fill="none" stroke="#000000" stroke-miterlimit="10" x1="255.1181" y1="425.1968" x2="255.1181" y2="992.126"/>
	<line fill="none" stroke="#000000" stroke-miterlimit="10" x1="198.4252" y1="425.1968" x2="198.4252" y2="992.126"/>
</g>
</svg>
